<?xml version="1.0" encoding="UTF-8" standalone="no"?>
<!-- Created with Inkscape (http://www.inkscape.org/) -->

<svg
   width="24"
   height="24"
   viewBox="0 0 24 24"
   version="1.1"
   id="svg5"
   inkscape:version="1.1.2 (0a00cf5339, 2022-02-04)"
   sodipodi:docname="icon.svg"
   inkscape:export-filename="icon.png"
   inkscape:export-xdpi="1024"
   inkscape:export-ydpi="1024"
   xmlns:inkscape="http://www.inkscape.org/namespaces/inkscape"
   xmlns:sodipodi="http://sodipodi.sourceforge.net/DTD/sodipodi-0.dtd"
   xmlns="http://www.w3.org/2000/svg"
   xmlns:svg="http://www.w3.org/2000/svg">
  <sodipodi:namedview
     id="namedview7"
     pagecolor="#000000"
     bordercolor="#666666"
     borderopacity="1.0"
     inkscape:pageshadow="2"
     inkscape:pageopacity="0"
     inkscape:pagecheckerboard="0"
     inkscape:document-units="px"
     showgrid="false"
     units="px"
     width="24px"
     inkscape:zoom="12.414927"
     inkscape:cx="7.8534493"
     inkscape:cy="22.472947"
     inkscape:window-width="1280"
     inkscape:window-height="1347"
     inkscape:window-x="0"
     inkscape:window-y="0"
     inkscape:window-maximized="0"
     inkscape:current-layer="layer1" />
  <defs
     id="defs2" />
  <g
     inkscape:label="Layer 1"
     inkscape:groupmode="layer"
     id="layer1">
    <circle
       style="fill:#c12bdb;stroke-width:1.88976;stroke-opacity:0.13739;stop-color:#000000;fill-opacity:1"
       id="path846"
       cx="12"
       cy="12"
       r="12" />
    <path
       d="m 5.0470149,12.064 q 0,1.968 0.864,3.424 0.88,1.44 2.416,2.336 l -0.912,1.216 q -2.176,-1.2 -3.184,-2.992 -1.008,-1.792 -1.008,-3.984 0,-2.2080003 1.04,-4.0480003 1.04,-1.856 3.216,-3.056 l 0.912,1.216 q -1.536,0.896 -2.448,2.4 -0.896,1.5040003 -0.896,3.4880003 z"
       style="font-weight:bold;font-size:16px;font-family:'Ubuntu Mono';-inkscape-font-specification:'Ubuntu Mono Bold';letter-spacing:4.53px;fill-opacity:0.60354418;stroke-width:1.88976;stroke-opacity:0.13739;fill:#000000"
       id="path848" />
    <path
       d="m 18.952985,12.064 q 0,-1.984 -0.912,-3.4880003 -0.896,-1.504 -2.432,-2.4 l 0.912,-1.216 q 2.176,1.2 3.216,3.056 1.04,1.84 1.04,4.0480003 0,2.192 -1.008,3.984 -1.008,1.792 -3.184,2.992 l -0.912,-1.216 q 1.536,-0.896 2.4,-2.336 0.88,-1.456 0.88,-3.424 z"
       style="font-weight:bold;font-size:16px;font-family:'Ubuntu Mono';-inkscape-font-specification:'Ubuntu Mono Bold';letter-spacing:4.53px;fill-opacity:0.60354418;stroke-width:1.88976;stroke-opacity:0.13739;fill:#000000"
       id="path850" />
    <path
       d="m 13.908386,13.656001 q 0,-1.056 -0.352,-1.616 -0.336,-0.56 -1.04,-0.56 -0.32,0 -0.64,0.096 -0.304,0.08 -0.528,0.208 v 4.08 q 0.224,0.048 0.464,0.064 0.256,0.016 0.432,0.016 0.768,0 1.216,-0.512 0.448,-0.528 0.448,-1.776 z m 2,0.048 q 0,0.896 -0.24,1.632 -0.24,0.72 -0.704,1.232 -0.464,0.512 -1.136,0.8 -0.672,0.272 -1.536,0.272 -0.768,0 -1.568,-0.112 -0.8000002,-0.112 -1.3440002,-0.288 V 6.6960007 l 1.9680002,-0.336 v 3.7600003 q 0.416,-0.1920003 0.8,-0.2560003 0.384,-0.08 0.768,-0.08 0.736,0 1.296,0.2880003 0.56,0.272 0.928,0.8 0.384,0.512 0.576,1.232 0.192,0.72 0.192,1.6 z"
       style="font-weight:bold;font-size:16px;font-family:'Ubuntu Mono';-inkscape-font-specification:'Ubuntu Mono Bold';letter-spacing:4.48px;fill-opacity:0.90400642;stroke-width:1.88976;stroke-opacity:0.13739;fill:#fdfdfd"
       id="path826" />
  </g>
</svg>
