<?xml version="1.0" encoding="UTF-8" standalone="no"?>
<!-- Created with Inkscape (http://www.inkscape.org/) -->

<svg
   width="1000"
   height="1000"
   viewBox="0 0 1000 1000"
   version="1.1"
   id="svg5"
   inkscape:version="1.1.2 (0a00cf5339, 2022-02-04)"
   sodipodi:docname="icon_quiet.svg"
   inkscape:export-filename="icon_quiet.png"
   inkscape:export-xdpi="192"
   inkscape:export-ydpi="192"
   xmlns:inkscape="http://www.inkscape.org/namespaces/inkscape"
   xmlns:sodipodi="http://sodipodi.sourceforge.net/DTD/sodipodi-0.dtd"
   xmlns:xlink="http://www.w3.org/1999/xlink"
   xmlns="http://www.w3.org/2000/svg"
   xmlns:svg="http://www.w3.org/2000/svg">
  <sodipodi:namedview
     id="namedview7"
     pagecolor="#ffffff"
     bordercolor="#666666"
     borderopacity="1.0"
     inkscape:pageshadow="2"
     inkscape:pageopacity="0.0"
     inkscape:pagecheckerboard="0"
     inkscape:document-units="px"
     showgrid="false"
     units="px"
     borderlayer="true"
     inkscape:zoom="0.22627417"
     inkscape:cx="-707.10678"
     inkscape:cy="437.52232"
     inkscape:window-width="2560"
     inkscape:window-height="1347"
     inkscape:window-x="0"
     inkscape:window-y="0"
     inkscape:window-maximized="1"
     inkscape:current-layer="layer1" />
  <defs
     id="defs2">
    <linearGradient
       inkscape:collect="always"
       id="linearGradient10113">
      <stop
         style="stop-color:#ffffff;stop-opacity:0.32156864"
         offset="0"
         id="stop10109" />
      <stop
         style="stop-color:#ffffff;stop-opacity:0"
         offset="1"
         id="stop10111" />
    </linearGradient>
    <linearGradient
       inkscape:collect="always"
       id="linearGradient2545-3">
      <stop
         style="stop-color:#ff7ba3;stop-opacity:1"
         offset="0"
         id="stop2541" />
      <stop
         style="stop-color:#ffdf7b;stop-opacity:1"
         offset="1"
         id="stop2543" />
    </linearGradient>
    <linearGradient
       inkscape:collect="always"
       xlink:href="#linearGradient2545-3"
       id="linearGradient2547"
       x1="192.17056"
       y1="164.6609"
       x2="826.97266"
       y2="818.96393"
       gradientUnits="userSpaceOnUse"
       gradientTransform="matrix(0.87501072,0,0,0.87501072,62.201692,55.323362)" />
    <linearGradient
       inkscape:collect="always"
       xlink:href="#linearGradient10113"
       id="linearGradient10115"
       x1="554.17975"
       y1="233.09546"
       x2="474.20724"
       y2="644.65222"
       gradientUnits="userSpaceOnUse"
       gradientTransform="matrix(0.80048497,0,0,0.80048497,137.71963,83.438012)" />
  </defs>
  <g
     inkscape:label="bg"
     inkscape:groupmode="layer"
     id="layer1"
     style="display:inline"
     sodipodi:insensitive="true">
    <rect
       style="opacity:1;fill:url(#linearGradient2547);fill-opacity:1;stroke:none;stroke-width:12.0752;stroke-linecap:round;stroke-linejoin:round;stop-color:#000000"
       id="rect2231"
       width="1000"
       height="1000"
       x="0"
       y="0" />
  </g>
  <g
     inkscape:groupmode="layer"
     id="layer2"
     inkscape:label="light"
     style="display:inline"
     sodipodi:insensitive="true">
    <path
       id="path7909"
       style="fill:url(#linearGradient10115);fill-opacity:1;stroke-width:11.0467;stroke-linecap:round;stroke-linejoin:round;stop-color:#000000"
       inkscape:transform-center-x="16.948783"
       inkscape:transform-center-y="-63.395539"
       d="M 757.44661,602.34555 301.61784,579.99751 498.19472,248.33019 637.11895,263.9341 Z"
       sodipodi:nodetypes="ccccc" />
  </g>
  <g
     inkscape:groupmode="layer"
     id="layer3"
     inkscape:label="siloet"
     style="display:inline"
     sodipodi:insensitive="true">
    <path
       style="fill:#000000;fill-opacity:1;stroke-width:1.28314"
       d="m 599.5218,905.84154 c -101.26467,-2.21828 -148.81722,-7.86685 -194.39528,-23.09112 -40.01091,-13.3647 -62.91337,-30.7949 -75.25548,-57.27385 -6.32189,-13.56303 -8.39929,-24.15091 -8.39248,-42.77503 0.0128,-23.60085 4.51291,-41.21052 16.45481,-64.33223 9.07576,-17.57244 24.95715,-33.16412 33.78052,-33.16412 1.43954,0 2.59141,-0.72172 2.55972,-1.60388 -0.0668,-1.86939 -21.11453,-19.56787 -23.27046,-19.56787 -0.80042,0 -2.73039,3.75315 -4.28875,8.34041 -4.86926,14.33273 -9.55528,24.40143 -17.40307,37.39327 -8.42803,13.95235 -54.59286,84.49199 -58.78846,89.82825 -1.47266,1.87311 -4.77892,3.89705 -7.36521,4.50869 -6.83719,1.61699 -7.77183,3.89647 -5.542,13.5164 4.26208,18.38713 1.48703,29.76772 -8.62345,35.36655 l -5.23456,2.89871 -54.36575,-1.24555 c -68.13869,-1.56113 -86.59636,-3.77078 -94.089111,-11.26356 -4.369342,-4.36939 -3.696333,-9.35771 2.064312,-15.30119 4.418089,-4.5584 5.195679,-4.9062 23.544539,-10.53181 15.12536,-4.63732 28.73227,-12.59427 43.62667,-25.51156 9.04201,-7.84179 22.45489,-22.06973 22.45489,-23.81944 0,-0.34578 -2.07791,-3.71641 -4.61736,-7.4902 -3.78577,-5.62562 -4.50471,-7.70263 -3.99108,-11.53142 0.58935,-4.39416 28.83531,-47.40324 103.97775,-158.32277 28.19051,-41.61272 36.74531,-48.64476 59.24873,-48.70294 15.57971,-0.0403 17.91413,1.19005 44.90979,23.66993 15.30963,12.74865 95.15848,83.10254 112.46543,99.09205 10.59948,9.79261 15.0598,13.04721 19.88863,14.51222 7.38612,2.24088 8.14946,2.30369 8.14946,0.67045 0,-2.59197 -33.63616,-35.86231 -55.96955,-55.36084 -24.96497,-21.79612 -34.75531,-33.01182 -41.59442,-47.65012 -5.4663,-11.69976 -6.22066,-20.87138 -2.59682,-31.5725 l 2.76234,-8.15718 -4.0986,-12.37303 c -2.25434,-6.80514 -8.05541,-23.55368 -12.89143,-37.21896 -4.83601,-13.66528 -8.79269,-26.21129 -8.79269,-27.88001 0,-4.16523 13.90074,-15.47214 27.49686,-22.36598 8.2679,-4.19223 29.38898,-13.5694 33.29331,-13.35275 1.53437,0.0851 1.39528,0.15506 1.79651,1.07875 0.94927,2.18551 -19.02122,14.23029 -26.5771,18.03538 -4.98499,2.51042 -9.0637,4.80136 -9.0637,5.09098 0,1.05344 19.16366,-4.93778 43.35669,-13.5548 13.61563,-4.84955 25.52712,-8.81737 26.47022,-8.81737 3.99133,0 4.09142,0.24863 30.22058,75.06352 6.90135,19.76032 14.63687,41.41326 17.19006,48.11765 2.55318,6.7044 4.64624,13.20876 4.65137,14.45416 0.0128,3.07196 -5.33323,6.09794 -20.88114,11.81999 -16.15661,5.94604 -17.60387,7.12494 -17.60387,14.33985 0,10.1271 10.72087,18.77939 27.58745,22.26459 4.23436,0.87494 13.35105,3.55759 20.25921,5.96141 7.38445,2.56952 13.29509,3.95922 14.34302,3.37235 0.98058,-0.54902 11.38067,-9.94812 23.11149,-20.88686 42.24601,-39.39355 49.04368,-45.38378 66.10902,-58.25601 9.5273,-7.18636 19.87452,-14.0869 22.99382,-15.3345 5.71868,-2.28723 14.21716,-10.2011 14.21716,-13.23905 0,-2.50083 -6.08425,-5.11898 -17.26024,-7.42746 -5.55946,-1.14832 -10.73474,-2.43781 -11.50077,-2.86551 -3.73714,-2.08675 -7.16684,-6.25711 -7.16684,-8.71471 0,-1.50641 -0.84686,-3.85976 -1.88184,-5.22967 -1.21615,-1.60974 -1.61855,-3.97074 -1.13763,-6.67499 0.44512,-2.50293 0.10522,-4.95479 -0.84738,-6.10185 -1.02638,-1.23675 -1.30162,-3.73018 -0.77514,-7.02271 0.7333,-4.58562 0.41073,-5.46625 -3.16987,-8.65422 -6.95756,-6.19477 -6.99374,-7.08122 -0.71035,-17.43207 7.27912,-11.99111 9.79419,-19.51498 9.85039,-29.46778 0.0243,-4.38611 0.87061,-11.72793 1.87967,-16.31515 1.80435,-8.20261 1.78562,-8.38278 -1.12942,-10.90666 -1.63022,-1.41145 -3.33821,-3.61333 -3.79539,-4.89305 -3.10404,-8.68916 22.56179,-26.31508 45.38879,-31.17062 12.86551,-2.73663 35.79465,-1.81896 47.43092,1.89831 26.98216,8.61962 45.38303,35.17426 43.23555,62.39438 -1.0062,12.75276 -4.90339,24.05838 -16.03996,46.53053 -9.50233,19.1743 -9.74046,19.89026 -10.25319,30.81814 -0.51324,10.93793 -0.3738,11.58899 6.24083,29.15171 6.6738,17.71999 6.76554,18.15558 6.75172,32.07844 -0.0129,11.57246 -0.63542,16.19435 -3.46373,25.66274 -12.06085,40.37588 -46.86645,86.91331 -82.35852,110.11866 -26.71903,17.46945 -56.74264,30.26777 -92.95661,39.62513 l -19.88863,5.13903 -36.56941,1.04924 c -20.11317,0.57712 -42.19917,1.46279 -49.08,1.96815 -12.70601,0.93315 -17.00002,2.96461 -7.05725,3.33868 2.99933,0.11274 9.20651,0.34436 13.79372,0.51446 4.58722,0.1701 17.86769,1.06608 29.51216,1.99106 31.74648,2.52178 53.35874,2.10588 67.3647,-1.2962 58.86558,-14.29863 99.23347,-35.5516 132.20159,-69.60154 14.57953,-15.05796 20.95817,-23.08393 33.1899,-41.76208 18.47271,-28.20801 26.67576,-51.87402 26.82473,-77.3889 0.0924,-15.76635 0.64531,-13.46646 -10.64868,-44.26824 -4.91972,-13.41729 -3.69421,-19.70873 8.65805,-44.44606 5.76563,-11.54667 11.33316,-25.35827 13.0694,-30.47943 1.15725,-3.41321 3.00329,-6.50751 5.68149,-8.00907 2.40352,-1.34763 4.19176,-2.12879 8.06796,-3.29536 12.87167,-3.87381 32.73246,0.72248 49.59213,9.47422 32.92813,17.09275 40.87915,72.03086 43.99848,149.48588 2.1258,52.78488 -13.56437,116.4224 -22.11299,155.37579 -12.68681,57.80978 -44.04033,104.19265 -89.48903,132.38527 -25.53512,15.83978 -57.42862,27.29098 -91.9183,33.00266 -22.28417,3.69046 -36.62393,5.14527 -61.56336,4.69389 -6.70439,-0.12142 -30.66699,-0.62541 -53.25019,-1.1201 z M 493.5389,553.55869 c 0,0 3.23351,-1.03025 2.78506,-2.25526 -3.51311,-9.59452 -4.6161,-12.38561 -4.6161,-12.38561 -10.71303,-27.91292 -13.21246,-35.79753 -11.70618,-36.9293 0.80927,-0.60817 4.06985,-1.84389 7.24561,-2.74605 3.17577,-0.90218 6.37348,-2.41287 7.37804,-2.94805 2.41217,-1.28512 2.53715,-1.30853 -0.0462,-8.3007 0,0 -1.25234,-4.51683 -2.84022,-4.28146 -2.82547,0.41885 -8.59497,2.47698 -8.59497,2.47698 -9.83639,2.83473 -9.8686,2.81735 -13.08826,-7.05737 -2.93004,-8.98655 -3.01755,-12.21916 -6.46637,-11.12454 -1.59365,0.5058 -5.91924,1.63289 -6.60366,2.64521 -1.32548,1.9605 0.41458,5.63195 2.15067,11.17542 3.41378,10.9007 3.5548,12.48812 -3.32768,14.04724 -10.348,2.34417 -8.6626,2.73817 -5.77093,10.97535 0.77156,2.19775 2.24717,2.59748 4.27927,2.02684 1.52744,-0.42893 5.14397,-1.12728 8.03655,-1.55188 4.36843,-0.64124 5.41945,-0.36662 6.20487,1.62131 0.52005,1.31632 4.40423,11.6254 8.63153,22.90907 4.22729,11.28368 8.29034,21.24404 9.02918,22.13412 1.84412,2.22205 2.79159,1.47959 7.32042,-0.43132 z M 802.24875,371.34741 c -1.90325,-3.24768 -6.28883,-9.02791 -9.74554,-12.84496 l -6.28496,-6.94007 -0.0243,-21.92326 c -0.0846,-76.19275 -0.71728,-86.95526 -7.07114,-110.27796 -11.71591,-43.00534 -35.30423,-73.71884 -68.72277,-89.48151 -12.7223,-6.00076 -22.46567,-8.43362 -37.09715,-9.26283 -15.48581,-0.87764 -27.66329,1.59537 -42.20803,8.57158 -15.10625,7.2455 -28.45844,20.63005 -35.85599,35.94287 -5.3476,11.06927 -11.39053,32.92669 -10.0612,36.39101 0.42189,1.09918 3.2897,2.23959 6.89211,2.74061 13.12688,1.82567 23.73291,4.789 26.69593,7.45888 2.26999,2.04536 5.09353,9.31083 10.80016,27.79055 10.00847,32.41041 -1.59285,-1.75645 4.33421,12.87076 2.62954,6.48927 4.59235,13.12951 4.36177,14.75607 -0.27382,1.9307 -2.09138,3.77442 -5.23584,5.31083 -4.42207,2.16071 -6.15572,2.23465 -21.17176,0.90286 -66.43867,-5.89256 -105.71083,-11.96686 -112.20941,-16.22489 -5.63156,-3.68993 -4.88836,-6.08512 7.17556,-23.12626 11.62522,-16.42124 -0.49356,1.67412 11.1867,-17.58584 11.96218,-19.72463 9.57016,-18.16792 27.57988,-17.94868 8.49283,0.10342 16.16317,0.14224 17.04532,0.0863 0.94593,-0.0599 1.60393,-1.87651 1.60393,-4.42806 0,-6.75092 5.83763,-28.09839 10.16065,-37.15652 13.10018,-27.44916 41.82655,-48.48436 73.83427,-54.06604 47.77518,-8.331299 96.00097,12.74987 126.16009,55.14896 13.45766,18.91933 22.43028,39.76516 29.54002,68.62907 0,0 1.80665,8.93669 2.3751,13.52684 3.79756,30.66836 1.39719,92.65276 1.39719,92.65276 0.28512,58.26265 0,44.39175 -0.77001,44.39175 -0.67302,0 -2.78083,-2.65719 -4.68408,-5.90488 z"
       id="path5143"
       sodipodi:nodetypes="ssscsssssssssscssssssssssssssssscssssssssssssssssssssssssssssssssssssssssscssscsssssssssssssssssssssssssssssssssssssssssssscssssssssssssssssssssssssssssss" />
  </g>
  <g
     inkscape:groupmode="layer"
     id="layer4"
     inkscape:label="mask"
     style="display:none"
     sodipodi:insensitive="true">
    <path
       id="rect18225"
       style="opacity:1;fill:#ffffff;fill-opacity:1;stroke:none;stroke-width:13.8;stroke-linecap:round;stroke-linejoin:round;stroke-opacity:1;stop-color:#000000"
       d="M -779.32422,-432.50586 V 1508.2363 H 1665.5215 V -432.50586 Z M 500,100 A 400,400 0 0 1 900,500 400,400 0 0 1 500,900 400,400 0 0 1 100,500 400,400 0 0 1 500,100 Z" />
  </g>
</svg>
