<?xml version="1.0" encoding="UTF-8"?>
<svg width="24" height="24" version="1.1" viewBox="0 0 24 24" xmlns="http://www.w3.org/2000/svg"><g stroke-opacity=".13739" stroke-width="1.8898"><circle cx="12" cy="12" r="12" fill="#c12bdb" stop-color="#000000"/><path d="m5.047 12.064q0 1.968 0.864 3.424 0.88 1.44 2.416 2.336l-0.912 1.216q-2.176-1.2-3.184-2.992t-1.008-3.984q0-2.208 1.04-4.048 1.04-1.856 3.216-3.056l0.912 1.216q-1.536 0.896-2.448 2.4-0.896 1.504-0.896 3.488z" fill-opacity=".60354"/><path d="m18.953 12.064q0-1.984-0.912-3.488-0.896-1.504-2.432-2.4l0.912-1.216q2.176 1.2 3.216 3.056 1.04 1.84 1.04 4.048 0 2.192-1.008 3.984t-3.184 2.992l-0.912-1.216q1.536-0.896 2.4-2.336 0.88-1.456 0.88-3.424z" fill-opacity=".60354"/><path d="m13.908 13.656q0-1.056-0.352-1.616-0.336-0.56-1.04-0.56-0.32 0-0.64 0.096-0.304 0.08-0.528 0.208v4.08q0.224 0.048 0.464 0.064 0.256 0.016 0.432 0.016 0.768 0 1.216-0.512 0.448-0.528 0.448-1.776zm2 0.048q0 0.896-0.24 1.632-0.24 0.72-0.704 1.232t-1.136 0.8q-0.672 0.272-1.536 0.272-0.768 0-1.568-0.112-0.8-0.112-1.344-0.288v-10.544l1.968-0.336v3.76q0.416-0.192 0.8-0.256 0.384-0.08 0.768-0.08 0.736 0 1.296 0.288 0.56 0.272 0.928 0.8 0.384 0.512 0.576 1.232t0.192 1.6z" fill="#fdfdfd" fill-opacity=".90401"/></g></svg>
