<?xml version="1.0" encoding="UTF-8" standalone="no"?>
<!-- Created with Inkscape (http://www.inkscape.org/) -->

<svg
   width="470.58685"
   height="463.86868"
   viewBox="0 0 470.58685 463.86868"
   version="1.1"
   id="svg5"
   inkscape:version="1.1.2 (0a00cf5339, 2022-02-04)"
   sodipodi:docname="illustration.svg"
   inkscape:export-filename="social.png"
   inkscape:export-xdpi="96"
   inkscape:export-ydpi="96"
   xmlns:inkscape="http://www.inkscape.org/namespaces/inkscape"
   xmlns:sodipodi="http://sodipodi.sourceforge.net/DTD/sodipodi-0.dtd"
   xmlns="http://www.w3.org/2000/svg"
   xmlns:svg="http://www.w3.org/2000/svg">
  <sodipodi:namedview
     id="namedview7"
     pagecolor="#ffffff"
     bordercolor="#666666"
     borderopacity="1.0"
     inkscape:pageshadow="2"
     inkscape:pageopacity="0.0"
     inkscape:pagecheckerboard="0"
     inkscape:document-units="px"
     showgrid="false"
     inkscape:zoom="0.54866744"
     inkscape:cx="361.78564"
     inkscape:cy="235.1151"
     inkscape:window-width="2560"
     inkscape:window-height="1347"
     inkscape:window-x="0"
     inkscape:window-y="0"
     inkscape:window-maximized="1"
     inkscape:current-layer="g1075"
     units="px"
     viewbox-height="630"
     borderlayer="true"
     inkscape:snap-bbox="true"
     inkscape:bbox-paths="false"
     inkscape:bbox-nodes="false"
     inkscape:snap-page="true"
     fit-margin-top="20"
     fit-margin-left="20"
     fit-margin-right="20"
     fit-margin-bottom="20"
     lock-margins="true" />
  <defs
     id="defs2" />
  <g
     inkscape:label="Layer 1"
     inkscape:groupmode="layer"
     id="layer1"
     transform="translate(-6.4025121,-18.15813)">
    <g
       inkscape:groupmode="layer"
       id="layer2"
       inkscape:label="Layer 2" />
    <g
       id="g1075"
       transform="matrix(0.73211723,0,0,0.73211723,26.401076,-54.720667)">
      <path
         d="m 256.49075,659.35999 -1.87,8.18 0.45,0.49 c -0.1,0.25 -0.2,0.5 -0.32,0.75 a 57.644,57.644 0 0 1 -3.4,6.52 c -1.68,2.79 -3.56,5.48 -5.51,8.12 -1.07,1.46 -2.17,2.91 -3.27,4.35 a 1.20684,1.20684 0 0 1 -0.1,0.14 0.87877,0.87877 0 0 1 0.05,-0.15 l -0.36,-0.08 -2.07,-8.98 -0.63,1.42 v 0.01 l -1.02,2.35 c 0.08,0.43 0.16,0.85 0.26,1.27 -0.01,-0.01 -0.01,-0.03 -0.02,-0.04 -0.01,-0.01 -0.01,-0.01 -0.01,-0.02 -0.13,-0.28 -0.27,-0.55 -0.4,-0.83 l -1.56,3.58 -3.16,-0.72 c -1.66,-0.86 -3.32,-1.73 -4.97,-2.63 -22.54,-12.23 -43.41,-27.84 -57.46,-49.09 a 96.90444,96.90444 0 0 1 -12.51,-27.53 c -5.33,-19.42 -4.41,-40.32 5.29,-57.67 a 0.0098,0.0098 0 0 1 0.01,-0.01 q 0.36,-0.66 0.75,-1.32 c 0.19,0.5 0.37,1 0.57,1.5 v 0.01 a 136.268,136.268 0 0 0 9.41,19.65 c 0.28,0.49 0.56,0.98 0.86,1.46 a 140.97617,140.97617 0 0 0 34.32,38.94 1.05944,1.05944 0 0 0 0.12,0.1 1.43666,1.43666 0 0 0 0.15,0.11 q 4.59,3.6 9.49,6.77 v 0.01 c 2.55,1.66 5.17,3.23 7.83,4.72 5.67,3.16 11.84,6.2 17.14,9.99 5.15,3.67 9.49,8.04 11.8,13.89 0.18,0.47 0.35,0.94 0.5,1.41 l -4.12,12.71 z"
         fill="#f0f0f0"
         id="path857"
         style="fill:#bcd35f" />
      <path
         d="m 239.46078,680.11999 v 0.01 l -1.02,2.35 c -1.54,-8.56 0.29,-17.61 -0.98,-26.28 -0.14,-0.97 -0.32,-1.94 -0.55,-2.9 -1.30005,-5.48 -4.27,-10.61 -9.55005,-13.06 a 21.8476,21.8476 0 0 0 -4.81995,-1.55 c -3.28,-0.7 -6.7,-0.85 -10.01,-1.24 -0.83,-0.1 -1.65,-0.21 -2.45,-0.36005 a 30.08933,30.08933 0 0 1 -11.98,-4.63 47.71988,47.71988 0 0 1 -11.4,-11.46 102.33333,102.33333 0 0 1 -5.75,-8.66 c -0.24,-0.38 -0.46,-0.77 -0.69,-1.16 a 121.34464,121.34464 0 0 1 -10.13,-22.6 118.53179,118.53179 0 0 1 -3.36,-12.24 121.36825,121.36825 0 0 1 -2.87,-27.54 0.0098,0.0098 0 0 1 0.01,-0.01 c -0.01,-0.42 0,-0.84 0.01,-1.26 0.02,-0.86 1.35,-0.67 1.33,0.19 -0.01,0.42 -0.02,0.83 -0.02,1.25 v 0.01 a 120.88811,120.88811 0 0 0 2.67,26.4 c 0.1,0.44 0.2,0.88 0.29,1.32 a 119.7122,119.7122 0 0 0 13.47,34.19 c 0.07,0.12 0.13995,0.24 0.22,0.36 1.45,2.47 3.01,4.87 4.65,7.22 a 51.89835,51.89835 0 0 0 10.98,11.92 28.66609,28.66609 0 0 0 12.16,5.27 c 0.43995,0.08 0.88,0.16 1.33,0.23 0.35,0.06 0.71,0.11 1.07,0.15 3.37,0.42 6.83,0.58 10.18,1.22 a 26.991,26.991 0 0 1 4.47,1.25 18.15217,18.15217 0 0 1 10.32,10.68 31.58305,31.58305 0 0 1 1.81995,7.25 c 0.11,0.81 0.19,1.62 0.26,2.44 v 0.01 c 0.1,1.31995 0.15,2.65 0.17,3.98 0.02,1.66 -0.01,3.32 -0.05,4.97 a 85.3029,85.3029 0 0 0 0.2201,12.28005 z"
         fill="#ffffff"
         id="path859" />
      <path
         d="m 181.51973,612.06011 a 18.01813,18.01813 0 0 1 -22.69434,-5.41582 c -0.50869,-0.69934 0.55415,-1.52268 1.06352,-0.82241 a 16.6844,16.6844 0 0 0 21.12074,4.9947 c 0.76923,-0.39533 1.27487,0.85047 0.51,1.24353 z"
         fill="#ffffff"
         id="path861" />
      <path
         d="m 209.54048,636.05957 a 34.72846,34.72846 0 0 0 -1.22951,-25.27921 c -0.35484,-0.78953 0.88912,-1.29863 1.24354,-0.51005 a 36.12283,36.12283 0 0 1 1.22593,26.30791 c -0.27855,0.82057 -1.517,0.29746 -1.24,-0.51865 z"
         fill="#ffffff"
         id="path863" />
      <path
         d="m 167.51246,575.50387 a 10.1991,10.1991 0 0 0 7.02237,-6.65924 c 0.268,-0.8237 1.50625,-0.29968 1.24,0.51865 a 11.42892,11.42892 0 0 1 -7.75229,7.38412 0.6946,0.6946 0 0 1 -0.87679,-0.36674 0.67543,0.67543 0 0 1 0.36674,-0.87679 z"
         fill="#ffffff"
         id="path865" />
      <path
         d="m 242.4108,687.98999 c 0.0199,-0.03 0.04,-0.05 0.06,-0.08 -0.04,0.12 -0.08,0.24 -0.11,0.37 z"
         fill="#f0f0f0"
         id="path867" />
      <path
         d="m 272.14078,626.42999 -1.4,4.9 -8.6,-1.61 -2.85,8.79 -0.49,1.51 -1.95,6.01 -4.12,12.71 3.76,0.62 -1.87,8.18 0.45,0.49 0.14,0.15 0.93,1.02 5.66,6.18 -15.48,13.25 -2.48,-0.57 -1.27,-0.29 a 1.20684,1.20684 0 0 1 -0.1,0.14 0.87877,0.87877 0 0 1 0.05,-0.15 l -0.36,-0.08 -2.07,-8.98 -0.63,1.42 v 0.01 l -1.02,2.35 c 0.08,0.43 0.16,0.85 0.26,1.27 -0.01,-0.01 -0.01,-0.03 -0.02,-0.04 -0.01,-0.01 -0.01,-0.01 -0.01,-0.02 -0.13,-0.28 -0.27,-0.55 -0.4,-0.83 -1.98,-4.13 -3.87,-8.32 -5.62,-12.56 a 184.48557,184.48557 0 0 1 -10.11,-31.61 c -0.1,-0.47 -0.21,-0.94 -0.29,-1.42 v -0.01 a 131.23411,131.23411 0 0 1 -2.67,-21.24 v -0.01 a 114.85052,114.85052 0 0 1 0.12,-11.73 96.392,96.392 0 0 1 6.57,-29.43 c 0.02,-0.05 0.04,-0.09 0.06,-0.14 7.13,-17.94 19.68,-33.5 36.74,-41.79 0.71,-0.36 1.44,-0.7 2.17,-1.02 h 0.02 l 0.01,-0.01 c 0.46,-0.2 0.91,-0.39 1.37,-0.59 -0.15,0.52 -0.31,1.04 -0.45,1.57 a 133.75043,133.75043 0 0 0 -4.32,21.35 v 0.01 c -0.08,0.55 -0.15,1.12 -0.21,1.68 v 0.01 a 141.58428,141.58428 0 0 0 4.01995,51.96 c 0.01,0.05 0.03,0.09 0.04,0.13995 a 135.98826,135.98826 0 0 0 6.42005,18.41005 z"
         fill="#f0f0f0"
         id="path869"
         style="fill:#677821" />
      <path
         d="m 256.14078,669.19999 c -0.79,1.06 -1.6,2.09 -2.42,3.12 -0.79,0.99 -1.58,1.98 -2.37,2.98 a 57.41827,57.41827 0 0 0 -5.51,8.12 28.47175,28.47175 0 0 0 -2,4.64 l -1.27,-0.29 a 1.20684,1.20684 0 0 1 -0.1,0.14 0.87877,0.87877 0 0 1 0.05,-0.15 c 2.33,-7.28 7.63,-12.92 12.23,-18.98 0.16,-0.2 0.31,-0.4 0.46,-0.6 z"
         fill="#ffffff"
         id="path871" />
      <path
         d="m 266.97079,531.85999 c -0.26,0.33 -0.53,0.67 -0.78,1.01 q -2.925,3.795 -5.53,7.83 a 117.99176,117.99176 0 0 0 -8.22,14.85 c -0.19,0.4 -0.38,0.81 -0.56,1.22 a 119.26327,119.26327 0 0 0 -9.84,35.44 c -0.02,0.12 -0.03,0.23 -0.04,0.35 q -0.49494,4.29 -0.64,8.61 a 51.7824,51.7824 0 0 0 1.59,16.12 c 0.2,0.69 0.42,1.37 0.66,2.03 a 27.34479,27.34479 0 0 0 2.25,4.65 27.9227,27.9227 0 0 0 2.14,3.09 c 0.47,0.6 0.96,1.19 1.48,1.76 0.3,0.33 0.61,0.66 0.92,0.99 0.26,0.25 0.51,0.51 0.77,0.76 2.7,2.62 5.68,5.05 8.12,7.94 l -0.49,1.51 c -2.35,-2.98 -5.38,-5.45 -8.11,-8.05 a 37.89748,37.89748 0 0 1 -4.66,-5.28 c -0.18,-0.26 -0.37,-0.52 -0.54,-0.79 a 26.749,26.749 0 0 1 -2.38995,-4.29 c -0.34,-0.75 -0.65,-1.52 -0.93,-2.32 a 47.89267,47.89267 0 0 1 -2.2,-16 103.41482,103.41482 0 0 1 0.62,-10.39 c 0.04,-0.45 0.09,-0.89 0.15,-1.34 a 121.6383,121.6383 0 0 1 5.52,-24.14 122.65961,122.65961 0 0 1 13.76,-28.18 q 2.475,-3.765 5.25,-7.35 c 0.24,-0.33 0.49,-0.65 0.75,-0.98 0.52991,-0.68 1.47992,0.27 0.94995,0.95 z"
         fill="#ffffff"
         id="path873" />
      <path
         d="m 241.2168,593.02636 a 18.01811,18.01811 0 0 1 -14.85941,-17.98776 0.67262,0.67262 0 0 1 1.34431,-0.0163 16.68439,16.68439 0 0 0 13.85658,16.70413 c 0.8522,0.14748 0.50587,1.44661 -0.34145,1.3 z"
         fill="#ffffff"
         id="path875" />
      <path
         d="m 249.14047,629.05899 a 34.72845,34.72845 0 0 0 14.23814,-20.92427 c 0.192,-0.844 1.49177,-0.50157 1.3,0.34145 a 36.12277,36.12277 0 0 1 -14.86033,21.74348 c -0.71645,0.48747 -1.39035,-0.67584 -0.67778,-1.16066 z"
         fill="#ffffff"
         id="path877" />
      <path
         d="m 252.04216,555.40491 a 10.19909,10.19909 0 0 0 9.6163,-1.08908 c 0.70992,-0.49631 1.38308,0.66759 0.67778,1.16066 a 11.429,11.429 0 0 1 -10.63553,1.2284 0.69462,0.69462 0 0 1 -0.47926,-0.82071 0.67543,0.67543 0 0 1 0.82071,-0.47927 z"
         fill="#ffffff"
         id="path879" />
      <path
         d="m 513.83463,596.37932 c 7.571,-40.52007 -4.34872,-86.61852 -37.47864,-111.14533 A 189.92246,189.92246 0 0 1 436.76276,609.4721 c -10.63431,13.63029 -23.88146,27.68319 -23.47,44.96635 0.25582,10.754 6.07175,20.77238 13.736,28.31989 7.66485,7.5477 17.10628,12.98925 26.43483,18.34614 l 1.45212,2.25887 c 27.34586,-30.84479 51.34795,-66.46396 58.91892,-106.98403 z"
         fill="#f0f0f0"
         id="path881"
         style="fill:#bcd35f" />
      <path
         d="m 475.75232,485.85344 a 162.33255,162.33255 0 0 1 10.71652,99.30007 c -1.533,7.14727 -3.7101,14.26418 -7.40239,20.61408 a 40.09421,40.09421 0 0 1 -15.14673,14.6917 c -5.78156,3.34071 -12.08233,6.08837 -16.95113,10.77632 -5.132,4.94135 -7.41737,11.68538 -7.22683,18.7316 0.23313,8.62125 3.55011,16.64458 7.06651,24.378 3.90429,8.58649 8.09566,17.44331 7.84245,27.09691 -0.0307,1.16966 1.78605,1.14888 1.81668,-0.019 0.44054,-16.79561 -11.70217,-30.28435 -14.40782,-46.4004 -1.26251,-7.52 -0.26641,-15.46612 5.02054,-21.29522 4.62321,-5.09729 11.11819,-7.93626 17.00138,-11.26821 6.17744,-3.4986 11.43648,-7.82109 15.34548,-13.8135 3.99869,-6.12991 6.45863,-13.1767 8.16761,-20.25343 a 157.49128,157.49128 0 0 0 3.56967,-49.09351 165.21111,165.21111 0 0 0 -13.85289,-54.37875 c -0.47608,-1.0646 -2.032,-0.12431 -1.559,0.93334 z"
         fill="#ffffff"
         id="path883" />
      <path
         d="m 489.34052,574.52942 a 24.355,24.355 0 0 0 25.40911,-18.68088 c 0.26554,-1.13836 -1.49094,-1.60448 -1.75684,-0.4646 a 22.55223,22.55223 0 0 1 -23.67129,17.3288 c -1.16575,-0.0876 -1.14006,1.72956 0.019,1.81668 z"
         fill="#ffffff"
         id="path885" />
      <path
         d="m 467.07429,619.1515 a 46.9424,46.9424 0 0 1 -11.76612,-32.12319 c 0.0265,-1.16974 -1.79017,-1.14931 -1.81667,0.019 a 48.82722,48.82722 0 0 0 12.31165,33.40221 c 0.77848,0.87521 2.04538,-0.42758 1.27114,-1.298 z"
         fill="#ffffff"
         id="path887" />
      <path
         d="m 487.55287,521.64342 a 13.78612,13.78612 0 0 1 -12.24672,-4.598 c -0.767,-0.88464 -2.03314,0.41915 -1.27114,1.298 a 15.44848,15.44848 0 0 0 13.53688,5.1166 0.9389,0.9389 0 0 0 0.89883,-0.91784 0.913,0.913 0 0 0 -0.91785,-0.89883 z"
         fill="#ffffff"
         id="path889" />
      <path
         d="m 340.87319,518.7502 c 0.46321,0.566 0.92643,1.132 1.38569,1.71288 a 181.55558,181.55558 0 0 1 16.61657,24.31563 c 0.38711,0.65443 0.76957,1.32347 1.13707,1.98766 a 191.40035,191.40035 0 0 1 22.33268,66.83541 185.8738,185.8738 0 0 1 1.70413,28.19016 c -0.20468,13.01814 -1.4624,27.11683 2.528,39.08987 a 31.88566,31.88566 0 0 0 1.436,3.676 l 64.03404,20.40184 c 0.1688,-0.0267 0.33367,-0.0386 0.50318,-0.065 l 2.51944,0.93148 c 0.0416,-0.48562 0.0743,-0.99019 0.11582,-1.47581 0.0253,-0.2816 0.0363,-0.56775 0.0616,-0.84935 0.0123,-0.18917 0.024,-0.37866 0.0459,-0.54866 0.004,-0.063 0.008,-0.12613 0.008,-0.17455 0.022,-0.17 0.0243,-0.33024 0.0416,-0.48562 0.19045,-2.81988 0.36667,-5.64438 0.51289,-8.47835 0.005,-0.0146 0.005,-0.0146 -0.005,-0.0338 1.0991,-21.58414 0.40591,-43.44967 -3.584,-64.51486 -0.12025,-0.63373 -0.23513,-1.28186 -0.38464,-1.92492 a 177.36546,177.36546 0 0 0 -7.8437,-27.86114 156.7993,156.7993 0 0 0 -6.3232,-14.55078 130.38868,130.38868 0 0 0 -23.66929,-33.193 c -19.10321,-19.44335 -44.21209,-32.56072 -71.11666,-32.97376 -0.68819,-0.01 -1.36288,-0.0159 -2.05581,-0.0113 z"
         fill="#f0f0f0"
         id="path891"
         style="fill:#dde9af" />
      <path
         d="m 340.75821,519.60878 a 162.33255,162.33255 0 0 1 68.342,72.83347 c 3.07914,6.62965 5.62572,13.62288 6.50071,20.91593 a 40.09422,40.09422 0 0 1 -3.24841,20.84988 c -2.6049,6.14827 -5.98143,12.13562 -7.04643,18.81 -1.12256,7.03519 1.11305,13.79589 5.50749,19.30718 5.37673,6.74322 12.85575,11.15235 20.31946,15.20995 8.287,4.50517 16.966,9.05335 22.576,16.91366 0.67972,0.95238 2.11776,-0.158 1.43906,-1.10895 -9.76037,-13.67559 -27.5768,-17.13484 -39.44008,-28.37362 -5.53563,-5.24421 -9.52439,-12.18844 -8.81257,-20.02575 0.62245,-6.8534 4.09907,-13.03058 6.79041,-19.233 2.82594,-6.51269 4.42255,-13.13025 3.93582,-20.26835 -0.4979,-7.30187 -2.77643,-14.4094 -5.67258,-21.08869 a 157.49128,157.49128 0 0 0 -26.7075,-41.34761 165.21084,165.21084 0 0 0 -43.80052,-35.078 c -1.02108,-0.5634 -1.69729,1.12415 -0.68287,1.68387 z"
         fill="#ffffff"
         id="path893" />
      <path
         d="m 404.99669,582.23056 a 24.355,24.355 0 0 0 9.04057,-30.21367 c -0.47335,-1.0688 -2.15644,-0.38344 -1.68246,0.68678 a 22.55224,22.55224 0 0 1 -8.46706,28.08783 c -0.98355,0.6319 0.131,2.06735 1.109,1.43906 z"
         fill="#ffffff"
         id="path895" />
      <path
         d="m 414.08392,631.2646 a 46.9424,46.9424 0 0 1 -28.735,-18.56455 c -0.68307,-0.95 -2.12131,0.16015 -1.43906,1.10895 a 48.82714,48.82714 0 0 0 29.9406,19.25732 c 1.14851,0.23012 1.37569,-1.57285 0.23342,-1.80172 z"
         fill="#ffffff"
         id="path897" />
      <path
         d="m 371.72837,541.08034 a 13.78616,13.78616 0 0 1 -12.54662,3.70216 c -1.145,-0.24456 -1.371,1.55875 -0.23342,1.80172 a 15.44851,15.44851 0 0 0 13.889,-4.06482 0.93891,0.93891 0 0 0 0.16505,-1.274 0.913,0.913 0 0 0 -1.274,-0.165 z"
         fill="#ffffff"
         id="path899" />
      <path
         d="m 893.81216,506.23394 -38.589,-206.6191 a 15.30459,15.30459 0 0 0 -14.5341,-12.38451 q -0.46807,-0.0104 -0.93615,0 l -26.28762,0.943 -2.82918,0.104 -13.11954,0.47152 -2.82917,0.0971 -8.43894,0.30511 -170.16586,6.10912 c -0.25656,0.0138 -0.52007,0.0138 -0.77663,0.007 l -38.13129,-0.79741 -14.11113,-0.29123 -0.45074,-0.007 -10.41522,-0.2219 -90.75513,-1.88613 -24.06172,-0.50618 -11.86449,-0.24268 -2.843,-0.0624 -13.52868,-0.27739 -2.83607,-0.0624 -13.84073,-0.28433 -2.83611,-0.0624 -15.20675,-0.319 -2.38538,-0.0485 -13.56334,-0.28428 -2.14265,-0.0416 h -0.312 a 15.263,15.263 0 0 0 -14.99179,12.7451 l -34.9,214.40622 a 15.18177,15.18177 0 0 0 14.98485,17.62679 h 200.42681 a 13.88889,13.88889 0 0 1 8.19626,2.70436 l 3.79994,2.8153 a 15.32026,15.32026 0 0 0 9.03527,2.9817 h 118.11759 a 15.09079,15.09079 0 0 0 10.74111,-4.4518 13.7781,13.7781 0 0 1 9.01449,-4.0149 L 879.68021,524.1866 a 15.18288,15.18288 0 0 0 14.13195,-17.95267 z"
         transform="translate(-305.92961,-102.51501)"
         fill="#cccccc"
         id="path907" />
      <path
         d="m 862.23372,500.61719 -21.51,-213.10952 c -0.007,-0.0901 -0.0208,-0.18719 -0.0347,-0.27734 a 13.5326,13.5326 0 0 0 -4.70143,-8.744 l -46.27206,-38.54737 a 12.27574,12.27574 0 0 0 -7.13535,-2.85 c -21.17016,-1.35912 -128.79627,-6.39337 -168.52242,28.09055 a 10.936,10.936 0 0 1 -8.88968,2.55179 11.1356,11.1356 0 0 1 -7.71086,-5.17294 45.57012,45.57012 0 0 0 -13.00167,-13.25824 69.16331,69.16331 0 0 0 -7.28093,-4.41709 c -2.2259,-1.17189 -4.64594,-2.30911 -7.28094,-3.40469 -2.2675,-0.94309 -4.68754,-1.85147 -7.28093,-2.71825 -13.44547,-4.49336 -31.419,-7.84954 -55.43913,-8.97288 -9.96448,-0.47153 -20.79574,-0.53391 -32.18866,-0.19414 -10.40134,0.30511 -21.45449,0.9361 -32.84742,1.87915 l -0.16641,0.007 -77.0878,47.06257 a 13.431,13.431 0 0 0 -6.2477,9.95758 l -0.15952,1.41457 -24.4778,218.71234 a 13.718,13.718 0 0 0 3.15506,10.40828 12.58506,12.58506 0 0 0 9.56232,4.46564 H 536.658 a 11.178,11.178 0 0 1 6.94117,2.46164 l 8.2933,6.643 a 12.5385,12.5385 0 0 0 7.60687,2.75981 l 83.51579,1.36606 h 0.20108 a 12.4541,12.4541 0 0 0 6.02584,-1.56714 l 16.10819,-8.94516 a 11.12148,11.12148 0 0 1 4.78463,-1.38685 l 180.01245,-9.50679 a 12.5116,12.5116 0 0 0 9.07691,-4.64594 13.56815,13.56815 0 0 0 3.00949,-10.06158 z"
         transform="translate(-305.92961,-102.51501)"
         fill="#e6e6e6"
         id="path909" />
      <path
         d="m 799.4004,462.185 -2.52,-33.17 -10.63,-139.86 -1.58,-20.69 a 21.92382,21.92382 0 0 0 -21.36,-20.31 c -38.95,-1 -109.48,0.76 -144.09,23.95 a 19.1879,19.1879 0 0 1 -25.11,-3.1 55.80676,55.80676 0 0 0 -16.94,-12.65 95.54807,95.54807 0 0 0 -14.56,-5.86 q -21.97494,-7.02 -55.46,-8.53 l -52.98,-0.31 h -0.09 a 14.44224,14.44224 0 0 0 -14.4,13.53 l -2.3,36.37 -10.05,159.5 a 21.97453,21.97453 0 0 0 21.63,23.36 c 88.93,1.32 127.78,20.09 144.72,35.59 a 21.96679,21.96679 0 0 0 26.9,2.18 c 30.75,-20.14 81.87,-25.74 122.56,-26.61 12.46,-0.26 23.94,-0.09 33.56,0.25 a 21.97354,21.97354 0 0 0 22.7,-23.64 z"
         transform="translate(-305.92961,-102.51501)"
         fill="#ffffff"
         id="path911" />
      <path
         d="m 357.91438,508.44778 c -0.0332,0 -0.0678,-0.001 -0.101,-0.004 a 1.41553,1.41553 0 0 1 -1.31267,-1.51185 l 15.30112,-216.05256 a 1.39921,1.39921 0 0 1 1.51185,-1.31267 1.41554,1.41554 0 0 1 1.31267,1.51186 L 359.32526,507.131 a 1.41528,1.41528 0 0 1 -1.41088,1.31678 z"
         transform="translate(-305.92961,-102.51501)"
         fill="#ffffff"
         id="path913" />
      <path
         d="m 376.32773,499.94931 c -0.0332,0 -0.0678,-0.001 -0.101,-0.004 a 1.41553,1.41553 0 0 1 -1.31267,-1.51185 L 390.21518,282.3809 a 1.39921,1.39921 0 0 1 1.51185,-1.31267 1.41554,1.41554 0 0 1 1.31267,1.51186 l -15.30109,216.05255 a 1.41528,1.41528 0 0 1 -1.41088,1.31682 z"
         transform="translate(-305.92961,-102.51501)"
         fill="#ffffff"
         id="path915" />
      <path
         d="m 393.32467,495.70008 c -0.0332,0 -0.0678,-0.001 -0.101,-0.004 a 1.41553,1.41553 0 0 1 -1.31267,-1.51186 l 15.30111,-216.05255 a 1.39921,1.39921 0 0 1 1.51186,-1.31267 1.41553,1.41553 0 0 1 1.31267,1.51185 l -15.30109,216.05256 a 1.4153,1.4153 0 0 1 -1.41088,1.31682 z"
         transform="translate(-305.92961,-102.51501)"
         fill="#ffffff"
         id="path917" />
      <path
         d="m 410.32161,487.20161 c -0.0332,0 -0.0678,-0.001 -0.101,-0.004 a 1.41554,1.41554 0 0 1 -1.31268,-1.51186 L 424.20905,269.6332 a 1.39921,1.39921 0 0 1 1.51186,-1.31267 1.41554,1.41554 0 0 1 1.31267,1.51185 l -15.30109,216.05256 a 1.4153,1.4153 0 0 1 -1.41088,1.31682 z"
         transform="translate(-305.92961,-102.51501)"
         fill="#ffffff"
         id="path919" />
      <path
         d="m 845.15718,509.86419 c 0.0332,0 0.0678,-0.001 0.101,-0.004 a 1.41553,1.41553 0 0 0 1.31267,-1.51185 l -15.30114,-216.0527 a 1.39922,1.39922 0 0 0 -1.51185,-1.31268 1.41553,1.41553 0 0 0 -1.31267,1.51186 l 15.30111,216.05255 a 1.4153,1.4153 0 0 0 1.41088,1.31682 z"
         transform="translate(-305.92961,-102.51501)"
         fill="#ffffff"
         id="path921" />
      <path
         d="m 826.74383,497.11649 c 0.0332,0 0.0678,-10e-4 0.101,-0.004 a 1.41553,1.41553 0 0 0 1.31267,-1.51185 L 812.85636,279.54793 a 1.39921,1.39921 0 0 0 -1.51185,-1.31267 1.41553,1.41553 0 0 0 -1.31267,1.51185 L 825.333,495.79967 a 1.4153,1.4153 0 0 0 1.41083,1.31682 z"
         transform="translate(-305.92961,-102.51501)"
         fill="#ffffff"
         id="path923" />
      <path
         d="m 809.74689,482.95237 c 0.0332,0 0.0678,-10e-4 0.101,-0.004 a 1.41553,1.41553 0 0 0 1.31267,-1.51185 l -15.30114,-216.0527 a 1.3992,1.3992 0 0 0 -1.51185,-1.31267 1.41553,1.41553 0 0 0 -1.31267,1.51185 l 15.3011,216.05255 a 1.41528,1.41528 0 0 0 1.41089,1.31682 z"
         transform="translate(-305.92961,-102.51501)"
         fill="#ffffff"
         id="path925" />
      <path
         d="m 462.14571,290.46133 c 31.92708,-10.18627 67.54612,-7.48949 97.79249,6.86086 a 128.767,128.767 0 0 1 24.30154,14.96765 c 2.12748,1.66973 5.155,-1.317 3.00466,-3.00467 a 139.18729,139.18729 0 0 0 -97.705,-28.65175 133.69837,133.69837 0 0 0 -28.52335,5.73047 c -2.59534,0.828 -1.48609,4.932 1.12962,4.09744 z"
         transform="translate(-305.92961,-102.51501)"
         fill="#3f3d56"
         id="path927" />
      <path
         d="m 637.8296,313.93822 c 29.68384,-15.60224 65.22951,-19.00454 97.50383,-10.14806 a 128.52039,128.52039 0 0 1 26.512,10.54121 c 2.41182,1.28694 4.56081,-2.37985 2.14467,-3.66908 -30.7598,-16.41326 -67.684,-20.19162 -101.27415,-11.04221 a 133.65686,133.65686 0 0 0 -27.031,10.64905 c -2.42152,1.27278 -0.27623,4.94155 2.14467,3.66909 z"
         transform="translate(-305.92961,-102.51501)"
         fill="#3f3d56"
         id="path929" />
      <path
         d="m 637.8296,342.26645 c 29.68384,-15.60224 65.22951,-19.00454 97.50383,-10.14806 a 128.51987,128.51987 0 0 1 26.512,10.54122 c 2.41182,1.28693 4.56081,-2.37985 2.14467,-3.66909 -30.7598,-16.41326 -67.684,-20.19162 -101.27415,-11.04221 a 133.65686,133.65686 0 0 0 -27.031,10.649 c -2.42152,1.27278 -0.27623,4.94155 2.14467,3.66909 z"
         transform="translate(-305.92961,-102.51501)"
         fill="#3f3d56"
         id="path931" />
      <path
         d="m 331.89999,267.06947 c 29.68384,-15.60224 65.22951,-19.00454 97.50383,-10.14806 a 128.51987,128.51987 0 0 1 26.512,10.54122 c 2.41182,1.28693 4.56081,-2.37985 2.14467,-3.66909 -30.7598,-16.41326 -67.684,-20.19162 -101.27415,-11.04221 a 133.65686,133.65686 0 0 0 -27.031,10.649 c -2.42152,1.27278 -0.27623,4.94155 2.14467,3.66909 z"
         fill="#3f3d56"
         id="path931-3" />
      <path
         d="m 331.89999,294.3875 c 29.68384,-15.60224 65.22951,-19.00454 97.50383,-10.14806 a 128.51987,128.51987 0 0 1 26.512,10.54122 c 2.41182,1.28693 4.56081,-2.37985 2.14467,-3.66909 -30.7598,-16.41326 -67.684,-20.19162 -101.27415,-11.04221 a 133.65686,133.65686 0 0 0 -27.031,10.649 c -2.42152,1.27278 -0.27623,4.94155 2.14467,3.66909 z"
         fill="#3f3d56"
         id="path931-5" />
      <path
         d="m 331.89999,321.70553 c 29.68384,-15.60224 65.22951,-19.00454 97.50383,-10.14806 a 128.51987,128.51987 0 0 1 26.512,10.54122 c 2.41182,1.28693 4.56081,-2.37985 2.14467,-3.66909 -30.7598,-16.41326 -67.684,-20.19162 -101.27415,-11.04221 a 133.65686,133.65686 0 0 0 -27.031,10.649 c -2.42152,1.27278 -0.27623,4.94155 2.14467,3.66909 z"
         fill="#3f3d56"
         id="path931-6" />
      <path
         d="m 331.89999,349.02356 c 29.68384,-15.60224 65.22951,-19.00454 97.50383,-10.14806 a 128.51987,128.51987 0 0 1 26.512,10.54122 c 2.41182,1.28693 4.56081,-2.37985 2.14467,-3.66909 -30.7598,-16.41326 -67.684,-20.19162 -101.27415,-11.04221 a 133.65686,133.65686 0 0 0 -27.031,10.649 c -2.42152,1.27278 -0.27623,4.94155 2.14467,3.66909 z"
         fill="#3f3d56"
         id="path931-2" />
      <path
         d="m 685.64213,415.97022 c -0.33958,0.0142 -0.66567,0.0283 -0.99142,0.0425 -2.36529,-0.84981 -4.7873,-1.60055 -7.23766,-2.25222 -1.58655,-0.42482 -3.20111,-0.80728 -4.816,-1.133 -1.82723,-0.39647 -3.66829,-0.70821 -5.50969,-0.97742 a 88.11476,88.11476 0 0 0 -10.58055,-0.89217 0.19234,0.19234 0 1 1 0,-0.38246 c 0.453,0 0.90635,0.0142 1.34552,0.0425 a 88.23278,88.23278 0 0 1 10.59473,1.034 c 1.82723,0.29739 3.65445,0.65149 5.4675,1.04813 1.64291,0.36828 3.28583,0.77909 4.90073,1.23227 q 3.46286,0.97718 6.82684,2.23781 z"
         transform="translate(-305.92961,-102.51501)"
         fill="#ffffff"
         id="path939" />
      <path
         d="m 723.82888,417.40081 a 7.69527,7.69527 0 0 0 -0.7791,-0.0851 c -0.29739,-0.24068 -0.6093,-0.46736 -0.92053,-0.694 a 64.77854,64.77854 0 0 0 -6.813,-4.26341 72.16616,72.16616 0 0 0 -6.58652,-3.15857 92.52514,92.52514 0 0 0 -15.89209,-5.014 158.10729,158.10729 0 0 0 -18.79581,-2.94608 c -6.31714,-0.65166 -12.66264,-1.04813 -19.00814,-1.44476 -0.269,-0.0284 -0.269,-0.41082 0,-0.39664 0.80746,0.0567 1.60038,0.0991 2.39366,0.15579 6.41638,0.39646 12.83277,0.84981 19.20662,1.57219 a 146.39352,146.39352 0 0 1 18.76745,3.25782 90.80435,90.80435 0 0 1 15.382,5.28318 c 1.86976,0.84982 3.697,1.77052 5.48168,2.77612 a 57.987,57.987 0 0 1 7.56378,4.95743 z"
         transform="translate(-305.92961,-102.51501)"
         fill="#ffffff"
         id="path943" />
      <path
         d="m 666.08607,368.70159 a 10.45864,10.45864 0 0 0 -9.525,0.60631 150.15194,150.15194 0 0 1 15.45625,3.211 c -2.10842,-1.09981 -3.75772,-2.82297 -5.93125,-3.81731 z"
         transform="translate(-305.92961,-102.51501)"
         fill="#ffffff"
         id="path951" />
      <path
         d="m 656.53178,369.30322 -0.57311,0.41464 c 0.19385,-0.14513 0.39538,-0.2812 0.60241,-0.41 z"
         transform="translate(-305.92961,-102.51501)"
         fill="#ffffff"
         id="path953" />
      <path
         d="m 673.79094,371.708 c -0.22844,-0.22668 -0.45546,-0.45335 -0.68539,-0.68 a 19.89084,19.89084 0 0 0 -6.24857,-4.57235 10.00066,10.00066 0 0 0 -3.798,-0.78365 11.98479,11.98479 0 0 0 -3.9435,0.76552 c -0.59373,0.21113 -1.17438,0.45075 -1.74623,0.70592 -0.65341,0.29273 -1.29517,0.6049 -1.93395,0.91965 q -1.79867,0.886 -3.55064,1.84966 -3.486,1.91768 -6.75355,4.12807 -1.69389,1.14632 -3.31787,2.36777 -1.51047,1.13466 -2.95983,2.33021 c -0.20662,0.16969 -0.51514,-0.10491 -0.30851,-0.27459 0.25466,-0.21114 0.51223,-0.421 0.7698,-0.62821 q 1.09138,-0.8782 2.21774,-1.72273 2.05392,-1.54269 4.21421,-2.96619 3.35934,-2.21495 6.94994,-4.12936 1.7943,-0.95592 3.638,-1.83153 c 0.37112,-0.17616 0.74657,-0.34844 1.12635,-0.51164 a 19.28065,19.28065 0 0 1 2.67753,-0.97017 10.64418,10.64418 0 0 1 4.044,-0.35361 11.41889,11.41889 0 0 1 3.73112,1.14892 24.48209,24.48209 0 0 1 6.186,4.93243 c 0.18617,0.18651 -0.12093,0.46241 -0.30865,0.27588 z"
         transform="translate(-305.92961,-102.51501)"
         fill="#ffffff"
         id="path957" />
      <path
         d="m 462.14571,318.78957 c 31.92708,-10.18628 67.54612,-7.4895 97.79249,6.86085 a 128.767,128.767 0 0 1 24.30154,14.96765 c 2.12748,1.66973 5.155,-1.317 3.00466,-3.00467 a 139.18734,139.18734 0 0 0 -97.705,-28.65175 133.69837,133.69837 0 0 0 -28.52335,5.73047 c -2.59534,0.828 -1.48609,4.932 1.12962,4.09745 z"
         transform="translate(-305.92961,-102.51501)"
         fill="#3f3d56"
         id="path959" />
      <path
         d="m 462.14571,347.1178 c 31.92708,-10.18627 67.54612,-7.4895 97.79249,6.86085 a 128.767,128.767 0 0 1 24.30154,14.96765 c 2.12748,1.66973 5.155,-1.317 3.00466,-3.00467 a 139.18734,139.18734 0 0 0 -97.705,-28.65175 133.69837,133.69837 0 0 0 -28.52335,5.73047 c -2.59534,0.828 -1.48609,4.932 1.12962,4.09745 z"
         transform="translate(-305.92961,-102.51501)"
         fill="#3f3d56"
         id="path961" />
      <path
         d="m 462.14571,375.446 c 31.92708,-10.18627 67.54612,-7.4895 97.79249,6.86085 a 128.767,128.767 0 0 1 24.30154,14.96765 c 2.12748,1.66973 5.155,-1.317 3.00466,-3.00467 a 139.18734,139.18734 0 0 0 -97.705,-28.65175 133.69837,133.69837 0 0 0 -28.52335,5.73047 c -2.59534,0.828 -1.48609,4.932 1.12962,4.09745 z"
         transform="translate(-305.92961,-102.51501)"
         fill="#3f3d56"
         id="path963" />
      <path
         d="m 462.14571,403.77426 c 31.92708,-10.18627 67.54612,-7.48949 97.79249,6.86085 a 128.767,128.767 0 0 1 24.30154,14.96765 c 2.12748,1.66973 5.155,-1.317 3.00466,-3.00466 a 139.1873,139.1873 0 0 0 -97.705,-28.65176 133.69837,133.69837 0 0 0 -28.52335,5.73047 c -2.59534,0.828 -1.48609,4.932 1.12962,4.09745 z"
         transform="translate(-305.92961,-102.51501)"
         fill="#3f3d56"
         id="path965" />
      <path
         d="m 462.14571,432.10249 c 31.92708,-10.18627 67.54612,-7.48949 97.79249,6.86085 a 128.767,128.767 0 0 1 24.30154,14.96766 c 2.12748,1.66973 5.155,-1.317 3.00466,-3.00466 a 139.1873,139.1873 0 0 0 -97.705,-28.65176 133.69837,133.69837 0 0 0 -28.52335,5.73047 c -2.59534,0.828 -1.48609,4.932 1.12962,4.09745 z"
         transform="translate(-305.92961,-102.51501)"
         fill="#3f3d56"
         id="path967" />
      <rect
         x="299.6835"
         y="169.59186"
         width="2.0802701"
         height="256.82971"
         fill="#e6e6e6"
         id="rect971" />
      <path
         d="m 793.35041,479.075 a 22.01957,22.01957 0 0 1 -16.65,6.75 c -9.62,-0.34 -21.1,-0.51 -33.56,-0.25 l -0.07,-0.06 54,-70 2.33,46.67 a 22.02245,22.02245 0 0 1 -6.05,16.89 z"
         transform="translate(-305.92961,-102.51501)"
         fill="#f2f2f2"
         id="path973" />
      <polygon
         points="350.111,644.59 347.911,662.36 347.031,669.53 334.511,669.53 334.511,663.16 334.501,642.08 334.501,621.21 352.991,621.21 "
         fill="#ffb6b6"
         id="polygon975" />
      <polygon
         points="239.291,662.87 238.381,662.7 239.121,658.88 239.571,656.55 244.551,630.73 245.361,626.57 245.491,625.9 245.861,623.97 247.541,615.26 259.681,617.6 261.081,617.87 265.691,618.76 262.141,629.72 259.291,638.51 258.801,640.02 256.851,646.03 252.731,658.74 250.681,665.07 "
         fill="#ffb6b6"
         id="polygon977" />
      <path
         d="m 677.73036,584.495 c -7.16,39.35 -8.95,56.34 -8.95,56.34 0,0 5.37,6.26 1.79,9.84 -3.58,3.58 0,10.73 0,10.73 l -8.05,86.75 -6.48,-1.05005 -15.61,-2.51 -5.63,-0.91 3.58,-81.38 c 0,0 -3.58,-7.16 -1.79,-8.95 1.79,-1.79 -1.79,-12.52 -1.79,-12.52 l -4.47,-84.96 -27.73,93.01 c 0,0 2.68995,3.58 0,6.26 -2.68005,2.68 -8.04,16.1 -8.04,16.1 l -16.49,57.7 -1.4,4.9 -8.6,-1.61 -9.36,-1.76 -1.72,-0.31995 -3.06,-0.58 -1.97,-0.37 -0.67,-0.12 -3.24,-0.61 0.98,-4.35 0.51,-2.29 13.95,-61.96 0.32,-1.43 0.34,-1.51 c 0,0 -1.79,-4.47 0.89,-7.16 a 6.98829,6.98829 0 0 0 1.79,-6.26 2.44073,2.44073 0 0 1 -0.24,-0.3 3.71247,3.71247 0 0 1 -0.64,-1.46 c -0.24,-1.12 -0.03,-2.69 1.78,-4.5 a 7.63588,7.63588 0 0 0 1.27,-1.82 c 2.72,-5.15 4.09,-16.06 4.09,-16.06 0,0 2.42,-86.41 10.34,-99.61 a 4.2687,4.2687 0 0 1 1.29,-1.45 c 8.94,-5.36 94.79,0 94.79,0 0,0 0.12,0.62 0.31,1.8 1.03005,6.63 3.98001,31 -2.09,64.38 z"
         transform="translate(-305.92961,-102.51501)"
         fill="#2f2e41"
         id="path979" />
      <path
         id="fa90ba82-4976-41ea-9b03-d8a96d925ef6-1037"
         data-name="Path 2938"
         d="m 674.91671,425.74638 2.50682,-15.10134 46.16309,7.769 65.4957,4.68612 a 9.83737,9.83737 0 1 1 -1.67706,10.62413 l -40.16962,2.703 z"
         transform="translate(-305.92961,-102.51501)"
         fill="#ffb6b6" />
      <path
         id="fb44d525-e05f-4433-9150-930b9a652ce4-1038"
         data-name="Path 2946"
         d="m 640.41028,415.29364 3.2594,-13.48062 c 0,0 17.70011,-3.25819 31.69385,-0.14082 l 52.64514,10.10317 -4.26105,31.82339 z"
         transform="translate(-305.92961,-102.51501)"
         fill="#c12bdb" />
      <path
         id="ed2da19a-1c50-4597-bafc-ed19ebf50383-1039"
         data-name="Path 2948"
         d="m 518.21673,526.29939 29.453,-63.98388 21.49427,-45.26915 18.64142,10.97119 -58.03082,105.32272 a 9.83732,9.83732 0 1 1 -12.0706,-6.91711 q 0.25479,-0.0692 0.51308,-0.12458 z"
         transform="translate(-305.92961,-102.51501)"
         fill="#ffb6b6" />
      <path
         id="a46ff28a-e8a9-4d92-ab46-12a75733fdc3-1040"
         data-name="Path 2949"
         d="m 603.15949,397.6496 -14.29627,-6.55925 c 0,0 -2.53461,-0.87961 -8.00126,6.6895 -5.46665,7.56911 -52.49079,78.99068 -52.49079,78.99068 l 29.86083,13.49808 z"
         transform="translate(-305.92961,-102.51501)"
         fill="#c12bdb" />
      <path
         d="m 675.10041,785.965 -18.61,-12.86005 V 764.715 l -2.65,0.16 -13.4,0.8 -3.53,0.21 -2.44,29.22 -0.03,0.41 h 8.79 l 0.08,-0.41 1.49,-7.88995 3.81,7.88995 0.2,0.41 h 23.32 a 5.34343,5.34343 0 0 0 2.04,-0.41 5.23693,5.23693 0 0 0 0.93005,-9.13995 z"
         transform="translate(-305.92961,-102.51501)"
         fill="#2f2e41"
         id="path985" />
      <path
         d="m 269.9108,684.21999 -8.11005,-8.84 -5.66,-6.18 -0.93,-1.02 -0.14,-0.15 -0.45,-0.49 1.87,-8.18 -3.76,-0.62 -13.16,-2.19 -0.71,-0.11 -1.4,-0.24 -0.32,-0.05 -4.49,14.15 -4.07,12.79 -0.44,1.4 5.41,1.23 3.16,0.72 1.56,-3.58 0.17,-0.38 1.02,-2.35 v -0.01 l 0.63,-1.42 2.07,8.98 0.36,0.08 0.05,0.01 1.27,0.29 2.48,0.57 17.34,3.96 1.23,0.28 a 5.26176,5.26176 0 0 0 6.27,-3.95 5.22555,5.22555 0 0 0 -1.24995,-4.7 z"
         fill="#2f2e41"
         id="path987" />
      <path
         d="m 656.10017,356.39383 a 29.0569,29.0569 0 0 1 -19.66992,14.56 c -0.46,0.1 -0.91992,0.18 -1.39014,0.25 a 29.12482,29.12482 0 1 1 21.06006,-14.81 z"
         transform="translate(-305.92961,-102.51501)"
         fill="#ffb6b6"
         id="path989" />
      <path
         d="m 644.52009,316.86386 c -9.52978,-6.55407 -17.92187,-7.55243 -24.81543,-5.69354 a 9.062,9.062 0 0 0 -3.625,-3.21887 c -5.37646,-13.54724 -21.73828,-21.68305 -35.77978,-17.72809 -14.13233,3.98053 -23.8833,19.635 -21.22412,34.0744 1.648,8.95026 7.28076,16.70062 9.54638,25.51483 4.38575,17.06275 -6.313,36.6081 -23.0498,42.10828 15.84668,3.18188 33.29,-6.49768 38.9751,-21.628 2.76123,-7.34906 2.92773,-15.37287 3.2788,-23.2157 a 76.96923,76.96923 0 0 1 1.97871,-16.07627 34.34932,34.34932 0 0 1 2.5584,-6.84524 23.42431,23.42431 0 0 1 11.21045,-10.87628 8.94125,8.94125 0 0 0 1.30567,8.04938 c -3.71631,4.65545 -5.73926,9.69006 -5.73926,12.70514 -7.72022,14.11 3.31982,26.23 17.43018,33.95 a 28.90829,28.90829 0 0 0 18.46972,3.22 l 0.59033,-2.52 0.79981,2.27 2.66992,7.61005 q 4.62012,2.235 9.16016,4.9 c -1.14991,-5.4 -2.08008,-10.79 -2.72022,-16.06 -0.88623,-7.17279 2.20313,-17.85126 4.43164,-24.34509 a 38.33123,38.33123 0 0 0 2.09864,-12.43976 v -0.18512 l 2.16992,6.97 7.8999,-3.37 c -1.46973,-8.43013 0,-18.00013 -17.62012,-17.17012 z"
         transform="translate(-305.92961,-102.51501)"
         fill="#2f2e41"
         id="path991" />
      <path
         d="m 583.823,510.2677 a 25.54773,25.54773 0 0 0 0,-12.52014 c -1.78857,-6.26013 1.78864,-8.943 1.78864,-8.943 l 0.89428,-96.58472 c 3.77826,-3.77832 13.90119,-3.83985 19.56446,-3.5459 v -4.25342 a 5.90555,5.90555 0 0 1 5.90551,-5.90552 h 26.189 a 5.90556,5.90556 0 0 1 5.90552,5.90552 v 5.09839 l 7.68121,0.12085 c 13.376,0.99634 25.07886,14.20606 25.07886,14.20606 l -11.62592,44.71508 c 0,0 3.57721,36.66638 8.04871,41.13794 4.47155,4.47144 2.68292,7.1543 2.68292,7.1543 0,0 -2.68292,9.8374 2.68292,13.41455 5.36579,3.57727 1.78858,9.8374 1.78858,9.8374 0,0 -96.58466,1.78858 -99.26752,-0.89428 -2.68294,-2.68281 2.68283,-8.94311 2.68283,-8.94311 z"
         transform="translate(-305.92961,-102.51501)"
         fill="#c12bdb"
         id="path993" />
    </g>
    <g
       aria-label="†"
       id="text39467"
       style="font-weight:bold;font-size:24px;font-family:Roboto;-inkscape-font-specification:'Roboto Bold';fill:#1a1a1a;stroke-width:1.88976;stroke-opacity:0.13739;stop-color:#000000"
       transform="translate(-28.721265,-127.13342)">
      <path
         d="m 389.09326,196.56834 v -2.82421 h -4.13672 v -4.38282 h -3.38672 v 4.38282 h -4.0664 v 2.82421 h 4.0664 v 9.85547 h 3.38672 v -9.85547 z"
         id="path42313" />
    </g>
  </g>
</svg>
